<svg xmlns="http://www.w3.org/2000/svg" xmlns:xlink="http://www.w3.org/1999/xlink" width="122" height="79" viewBox="0 0 122 79">
  <defs>
    <clipPath id="clip-path">
      <rect id="Rectangle_9" data-name="Rectangle 9" width="122" height="79" transform="translate(140 11)" fill="#fff" stroke="#707070" stroke-width="1"/>
    </clipPath>
  </defs>
  <g id="Mask_Group_3" data-name="Mask Group 3" transform="translate(-140 -11)" clip-path="url(#clip-path)">
    <g id="noodles" transform="translate(161.5 11)">
      <g id="Group_3" data-name="Group 3">
        <g id="Group_2" data-name="Group 2">
          <path id="Path_5" data-name="Path 5" d="M15.041,52.482a25.273,25.273,0,0,0,8.988,14,1.8,1.8,0,0,0,2.216-2.826,21.693,21.693,0,0,1-7.711-12,1.795,1.795,0,1,0-3.493.828Z" fill="#ffbb24"/>
          <path id="Path_6" data-name="Path 6" d="M78.282,7.543a1.8,1.8,0,0,0-1.575-.293L38.767,18.089a9.778,9.778,0,0,0-1.528-2.07c-.028-.031-.047-.057-.075-.088l40.5-10.606A1.8,1.8,0,0,0,79,3.584l0-1.792A1.8,1.8,0,0,0,76.707.068L1.3,21.611A1.8,1.8,0,0,0,1.8,25.133a1.868,1.868,0,0,0,.456-.058l12.031-3.151a4.217,4.217,0,0,1-1.247,1.988,10.03,10.03,0,0,0-1.473,1.949L1.3,28.792A1.8,1.8,0,0,0,1.8,32.315a1.868,1.868,0,0,0,.456-.058L10.887,30a7.481,7.481,0,0,0,2.148,4.234,3.506,3.506,0,0,1,0,5.5A7.808,7.808,0,0,0,11,43.091H8.978a1.794,1.794,0,0,0-1.8,1.8v1.8a32.33,32.33,0,0,0,18.559,29.2,1.771,1.771,0,0,0-.6,1.323,1.794,1.794,0,0,0,1.8,1.8H52.069a1.794,1.794,0,0,0,1.8-1.8,1.773,1.773,0,0,0-.6-1.323,32.329,32.329,0,0,0,18.559-29.2v-1.8a1.794,1.794,0,0,0-1.8-1.8H36.461a9.459,9.459,0,0,1,.778-.952,7.019,7.019,0,0,0,0-10.322,3.5,3.5,0,0,1,0-5.488,7.653,7.653,0,0,0,2.093-3.783L77.661,12.507A1.8,1.8,0,0,0,79,10.766l0-1.792A1.793,1.793,0,0,0,78.282,7.543ZM33.4,16.917a12.283,12.283,0,0,0,1.181,1.518c.224.246.418.466.591.681l-3,.857a6.381,6.381,0,0,0-.96-2.483Zm-3.343,9.411a11.194,11.194,0,0,0,1.3-1.7l3.359-.88c-.049.055-.088.1-.141.16a7.013,7.013,0,0,0,0,10.317,3.506,3.506,0,0,1,0,5.5,7.808,7.808,0,0,0-2.038,3.365H29.279a9.46,9.46,0,0,1,.778-.952,7.019,7.019,0,0,0,0-10.322,3.5,3.5,0,0,1,0-5.488Zm-2.618-7.85a3.631,3.631,0,0,1,1.266,2.485l-3.671,1.049a6.391,6.391,0,0,0,.1-.839,6.692,6.692,0,0,0-.311-2.011Zm-1.606,7.6a6.459,6.459,0,0,0-.7,2.988,7.091,7.091,0,0,0,2.262,5.16,3.506,3.506,0,0,1,0,5.5,7.808,7.808,0,0,0-2.038,3.365H22.1a9.459,9.459,0,0,1,.778-.952,7.019,7.019,0,0,0,0-10.322,3.6,3.6,0,0,1-1.329-2.748,2.955,2.955,0,0,1,.738-2.059ZM17.925,20.97l3.434-.9a3.125,3.125,0,0,1,.187,1.1,2.947,2.947,0,0,1-.728,2.043l-3.591,1.026a6.477,6.477,0,0,0,.728-3.069C17.955,21.1,17.927,21.043,17.925,20.97Zm.147,7.143a6.481,6.481,0,0,0-.117.956,7.091,7.091,0,0,0,2.262,5.16,3.506,3.506,0,0,1,0,5.5,7.808,7.808,0,0,0-2.038,3.365H14.916a9.459,9.459,0,0,1,.778-.952,7.019,7.019,0,0,0,0-10.322,3.6,3.6,0,0,1-1.328-2.733ZM68.228,46.682a28.727,28.727,0,1,1-57.454,0Z" fill="#ff4343"/>
        </g>
      </g>
    </g>
  </g>
</svg>
