<svg xmlns="http://www.w3.org/2000/svg" xmlns:xlink="http://www.w3.org/1999/xlink" width="150" height="150" viewBox="0 0 150 150">
  <defs>
    <clipPath id="clip-path">
      <rect id="Rectangle_15" data-name="Rectangle 15" width="150" height="150" transform="translate(1460 2191)" fill="#fff" stroke="#707070" stroke-width="1"/>
    </clipPath>
  </defs>
  <g id="Mask_Group_7" data-name="Mask Group 7" transform="translate(-1460 -2191)" clip-path="url(#clip-path)">
    <g id="destination" transform="translate(1460.068 2191)">
      <path id="Path_16" data-name="Path 16" d="M44.077,210.339c-12.6,0-26,4.17-26,11.9s13.4,11.9,26,11.9,26-4.17,26-11.9S56.68,210.339,44.077,210.339Z" transform="translate(-7.299 -84.136)" fill="#ffdb56"/>
      <path id="Path_17" data-name="Path 17" d="M36.891,75.148A36.82,36.82,0,0,0,.113,111.926c0,12.591,5.989,26.128,17.8,40.237A126.8,126.8,0,0,0,35.545,169.5a2.2,2.2,0,0,0,2.692,0,126.8,126.8,0,0,0,17.629-17.341c11.813-14.108,17.8-27.646,17.8-40.237A36.82,36.82,0,0,0,36.891,75.148Zm13.792,36.778A13.791,13.791,0,1,1,36.891,98.134,13.791,13.791,0,0,1,50.683,111.926Z" transform="translate(-0.113 -30.059)" fill="#ff4343"/>
      <path id="Path_18" data-name="Path 18" d="M202.029,106.25a41.553,41.553,0,0,0-27.528,0c-4.338,1.768-6.727,4.363-6.727,7.308s2.389,5.54,6.727,7.308a41.553,41.553,0,0,0,27.528,0c4.338-1.767,6.727-4.363,6.727-7.308S206.367,108.018,202.029,106.25Z" transform="translate(-67.178 -41.562)" fill="#ffdb56"/>
      <g id="Group_21" data-name="Group 21" transform="translate(10.779 69.249)">
        <path id="Path_19" data-name="Path 19" d="M44.077,234.742c-11.017,0-22.639-3.187-25.39-9.151a6.5,6.5,0,0,0-.608,2.747c0,7.728,13.4,11.9,26,11.9s26-4.17,26-11.9a6.5,6.5,0,0,0-.608-2.747C66.716,231.555,55.094,234.742,44.077,234.742Z" transform="translate(-18.078 -159.485)" fill="#ffbb24"/>
        <path id="Path_20" data-name="Path 20" d="M202.03,119.976a41.553,41.553,0,0,1-27.528,0c-2.926-1.192-4.961-2.762-5.978-4.561a5.523,5.523,0,0,0-.749,2.747c0,2.945,2.389,5.54,6.727,7.308a41.553,41.553,0,0,0,27.528,0c4.338-1.767,6.727-4.363,6.727-7.308a5.525,5.525,0,0,0-.749-2.747C206.99,117.214,204.955,118.784,202.03,119.976Z" transform="translate(-77.957 -115.415)" fill="#ffbb24"/>
      </g>
      <path id="Path_21" data-name="Path 21" d="M182.744,0a28.808,28.808,0,0,0-28.775,28.775c0,9.8,4.644,20.314,13.8,31.252a98.033,98.033,0,0,0,13.628,13.4,2.2,2.2,0,0,0,2.692,0,98.015,98.015,0,0,0,13.628-13.4c9.158-10.937,13.8-21.452,13.8-31.252A28.809,28.809,0,0,0,182.744,0Zm10.6,28.775a10.6,10.6,0,1,1-10.6-10.6A10.6,10.6,0,0,1,193.343,28.775Z" transform="translate(-61.655)" fill="#ff4343"/>
      <g id="Group_22" data-name="Group 22" transform="translate(32.635)">
        <path id="Path_22" data-name="Path 22" d="M58.648,75.148a36.991,36.991,0,0,0-4.143.235A36.829,36.829,0,0,1,87.14,111.925c0,12.591-5.989,26.128-17.8,40.237A132.537,132.537,0,0,1,54.5,167.193c1.642,1.412,2.677,2.218,2.8,2.311a2.2,2.2,0,0,0,2.692,0,126.8,126.8,0,0,0,17.629-17.341c11.813-14.108,17.8-27.646,17.8-40.237A36.82,36.82,0,0,0,58.648,75.148Z" transform="translate(-54.505 -30.059)" fill="#e7343f"/>
        <path id="Path_23" data-name="Path 23" d="M199.165,0a28.846,28.846,0,0,0-4.143.3,28.819,28.819,0,0,1,24.633,28.476c0,9.8-4.644,20.314-13.8,31.252a102.592,102.592,0,0,1-10.832,11.067c1.636,1.433,2.689,2.254,2.8,2.337a2.2,2.2,0,0,0,2.692,0,98.016,98.016,0,0,0,13.628-13.4c9.158-10.937,13.8-21.452,13.8-31.252A28.808,28.808,0,0,0,199.165,0Z" transform="translate(-110.712)" fill="#e7343f"/>
      </g>
      <path id="Path_24" data-name="Path 24" d="M116.808,186.867a2.2,2.2,0,0,1-.01-4.4l2.905-.013h.01a2.2,2.2,0,0,1,.01,4.4l-2.905.013Zm11.621-.053a2.2,2.2,0,0,1-.01-4.4l2.905-.013h.01a2.2,2.2,0,0,1,.01,4.4l-2.905.013Zm11.621-.053a2.2,2.2,0,0,1-.01-4.4l2.9-.013h.01a2.2,2.2,0,0,1,.01,4.4l-2.9.013Zm11.621-.053a2.2,2.2,0,0,1-.01-4.4l2.905-.013h.01a2.2,2.2,0,0,1,.01,4.4l-2.905.013Zm11.621-.052a2.2,2.2,0,0,1-.01-4.4l2.905-.013h.01a2.2,2.2,0,0,1,.01,4.4l-2.905.013Zm11.621-.053a2.2,2.2,0,0,1-.01-4.4l.412,0a16.6,16.6,0,0,0,2.194-.155,2.2,2.2,0,0,1,.6,4.358,21.057,21.057,0,0,1-2.776.2l-.411,0Zm10.943-3.314a2.2,2.2,0,0,1-1.255-4.008,16.564,16.564,0,0,0,1.986-1.618,2.2,2.2,0,1,1,3.035,3.185,20.984,20.984,0,0,1-2.514,2.048A2.19,2.19,0,0,1,185.855,183.29Zm6.956-9.07a2.2,2.2,0,0,1-2.072-2.939,16.388,16.388,0,0,0,.668-2.469,2.2,2.2,0,1,1,4.323.814,20.815,20.815,0,0,1-.848,3.132A2.2,2.2,0,0,1,192.811,174.22Zm.356-11.426a2.2,2.2,0,0,1-2.113-1.593,16.347,16.347,0,0,0-.9-2.4,2.2,2.2,0,0,1,3.987-1.86,20.757,20.757,0,0,1,1.138,3.042,2.2,2.2,0,0,1-2.116,2.807Zm-6.379-9.489a2.19,2.19,0,0,1-1.362-.473,16.533,16.533,0,0,0-2.126-1.426,2.2,2.2,0,1,1,2.159-3.833,21,21,0,0,1,2.693,1.805,2.2,2.2,0,0,1-1.364,3.926Zm-10.707-3.987-.1,0q-.369-.016-.742-.016h-2.066a2.2,2.2,0,1,1,0-4.4h2.066c.31,0,.625.007.936.021a2.2,2.2,0,0,1-.1,4.4Zm-11.622-.018h-2.905a2.2,2.2,0,0,1,0-4.4h2.905a2.2,2.2,0,0,1,0,4.4Zm-11.621,0h-2.905a2.2,2.2,0,1,1,0-4.4h2.905a2.2,2.2,0,0,1,0,4.4Zm-11.621,0h-2.905a2.2,2.2,0,0,1,0-4.4h2.905a2.2,2.2,0,1,1,0,4.4Zm-11.206-2.188a2.189,2.189,0,0,1-1.171-.339,16.552,16.552,0,0,1-2.634-2.063,2.2,2.2,0,1,1,3.05-3.17,12.109,12.109,0,0,0,1.932,1.513,2.2,2.2,0,0,1-1.176,4.06Zm-6.393-9.318a2.2,2.2,0,0,1-2.157-1.779,16.565,16.565,0,0,1-.3-3.16v-.173a2.2,2.2,0,0,1,2.2-2.174h.026a2.2,2.2,0,0,1,2.174,2.225v.122a12.154,12.154,0,0,0,.223,2.319,2.2,2.2,0,0,1-2.161,2.621Zm2.4-11.039a2.2,2.2,0,0,1-1.785-3.483,16.535,16.535,0,0,1,2.217-2.505A2.2,2.2,0,1,1,129.436,124a12.142,12.142,0,0,0-1.626,1.838A2.2,2.2,0,0,1,126.021,126.754Zm9.683-5.821a2.2,2.2,0,0,1-.287-4.38,16.648,16.648,0,0,1,2.185-.144h1a2.2,2.2,0,1,1,0,4.4h-1a12.231,12.231,0,0,0-1.6.105A2.108,2.108,0,0,1,135.7,120.934Z" transform="translate(-45.912 -46.564)" fill="#1ea4e9"/>
    </g>
  </g>
</svg>
