<svg xmlns="http://www.w3.org/2000/svg" width="432.653" height="511.111" viewBox="0 0 432.653 511.111">
  <g id="Group_2743" data-name="Group 2743" transform="translate(-5088.347 -2103.445)">
    <path id="blob_1_" data-name="blob (1)" d="M58.976-49.2C71.695-35.468,79.487-18.848,84.643-.15c5.271,18.7,7.906,39.473-.687,53.092S55.539,73.025,37.664,75.564s-33.8,1.154-49.27-3.693c-15.468-4.732-30.479-12.811-43.312-26.546C-67.865,31.705-78.636,12.546-75.427-3.728c3.323-16.389,20.51-30.009,37.239-43.051s33-25.507,49.957-26.315C28.612-73.9,46.258-62.938,58.976-49.2Z" transform="matrix(0.485, -0.875, 0.875, 0.485, 5252.63, 2217.201)" fill="#ffbb24"/>
    <path id="Path_1948" data-name="Path 1948" d="M426.76,67.961.2,21.271,0,0,426.562,46.691Z" transform="translate(5501.13 2298.19) rotate(-163)" fill="#872b17"/>
    <path id="Path_1944" data-name="Path 1944" d="M26.8,356.889l-14.376-.2c.171-8.026-1.315-11.477-4.688-18.519-3.759-7.831-8.9-18.583-8.472-38.759s6.026-30.776,10.115-38.5c3.671-6.947,5.3-10.354,5.472-18.38s-1.315-11.477-4.688-18.524c-3.759-7.831-8.9-18.579-8.472-38.76s6.026-30.776,10.115-38.5c3.67-6.941,5.3-10.347,5.472-18.373s-1.315-11.477-4.688-18.524c-3.759-7.831-8.9-18.584-8.472-38.76s6.026-30.776,10.115-38.5c3.671-6.948,5.3-10.353,5.472-18.38l.3-14.266,14.376.2-.3,14.266C33.655,34.6,28.059,45.2,23.969,52.917c-3.673,6.947-5.3,10.354-5.474,18.38s1.315,11.477,4.69,18.524c3.759,7.832,8.9,18.578,8.472,38.76s-6.026,30.775-10.115,38.495c-3.673,6.942-5.3,10.348-5.474,18.375s1.315,11.477,4.69,18.524c3.759,7.832,8.9,18.584,8.472,38.76s-6.026,30.776-10.115,38.5c-3.673,6.947-5.3,10.352-5.474,18.38s1.315,11.477,4.69,18.518C22.087,325.96,27.229,336.713,26.8,356.889Z" transform="matrix(0.995, 0.105, -0.105, 0.995, 5396.59, 2242.155)" fill="#ffc257"/>
    <path id="Path_1945" data-name="Path 1945" d="M26.8,356.889l-14.375-.2c.171-8.026-1.315-11.477-4.69-18.519-3.757-7.831-8.9-18.583-8.47-38.759s6.026-30.776,10.113-38.5c3.673-6.947,5.3-10.354,5.475-18.38s-1.315-11.477-4.69-18.524c-3.757-7.831-8.9-18.579-8.47-38.76s6.026-30.776,10.113-38.5c3.673-6.941,5.3-10.347,5.475-18.373s-1.315-11.477-4.69-18.524c-3.757-7.831-8.9-18.584-8.47-38.76s6.026-30.776,10.113-38.5c3.673-6.947,5.3-10.352,5.475-18.38l.3-14.266,14.375.2-.3,14.266C33.654,34.6,28.057,45.2,23.969,52.917c-3.674,6.947-5.3,10.354-5.475,18.38s1.315,11.477,4.691,18.524c3.757,7.831,8.9,18.578,8.47,38.76s-6.026,30.775-10.113,38.495c-3.673,6.942-5.3,10.348-5.475,18.375s1.315,11.477,4.691,18.524c3.757,7.832,8.9,18.584,8.47,38.76s-6.026,30.776-10.113,38.5c-3.674,6.948-5.3,10.352-5.475,18.38s1.315,11.477,4.691,18.518C22.086,325.96,27.229,336.713,26.8,356.889Z" transform="matrix(0.995, 0.105, -0.105, 0.995, 5425.775, 2242.155)" fill="#ffab1e"/>
    <path id="Path_1946" data-name="Path 1946" d="M26.8,356.889l-14.373-.2c.171-8.026-1.315-11.477-4.69-18.519-3.758-7.831-8.9-18.583-8.472-38.759s6.026-30.776,10.115-38.5c3.673-6.947,5.3-10.354,5.475-18.38s-1.315-11.477-4.69-18.524c-3.758-7.832-8.9-18.579-8.472-38.76s6.026-30.776,10.115-38.5c3.673-6.941,5.3-10.347,5.475-18.373s-1.315-11.477-4.69-18.525c-3.758-7.831-8.9-18.584-8.472-38.76s6.026-30.776,10.115-38.5c3.673-6.947,5.3-10.352,5.475-18.38l.3-14.266,14.373.2-.3,14.266C33.655,34.6,28.059,45.2,23.969,52.917,20.3,59.864,18.667,63.271,18.5,71.3s1.315,11.477,4.688,18.524c3.759,7.832,8.9,18.578,8.472,38.76s-6.025,30.775-10.115,38.495c-3.671,6.942-5.3,10.349-5.472,18.375s1.315,11.477,4.688,18.524c3.759,7.832,8.9,18.584,8.472,38.76s-6.025,30.776-10.115,38.5c-3.671,6.947-5.3,10.352-5.473,18.38s1.315,11.477,4.688,18.518C22.087,325.96,27.229,336.713,26.8,356.889Z" transform="matrix(0.995, 0.105, -0.105, 0.995, 5455.03, 2256.027)" fill="#ffc257"/>
    <path id="Path_1947" data-name="Path 1947" d="M425.975,19.768.143,36.864l-.2-21.27L425.777-1.5Z" transform="translate(5496.148 2313.047) rotate(-163)" fill="#9d4d33"/>
  </g>
</svg>
