<svg xmlns="http://www.w3.org/2000/svg" width="283.585" height="63" viewBox="0 0 283.585 63">
  <g id="Group_2747" data-name="Group 2747" transform="translate(-827.605 -4280)">
    <g id="Group_151" data-name="Group 151" transform="translate(827.605 4280)">
      <path id="Path_238" data-name="Path 238" d="M968.25,394.407h0a31.5,31.5,0,0,1-31.5-31.5h0a31.5,31.5,0,0,1,31.5-31.5h0a31.5,31.5,0,0,1,31.5,31.5h0A31.5,31.5,0,0,1,968.25,394.407Z" transform="translate(-936.75 -331.407)" fill="#597387" opacity="0.8"/>
      <g id="Group_150" data-name="Group 150" transform="translate(23.38 14)">
        <path id="Path_237" data-name="Path 237" d="M975.73,362.927h-4.88v17.48h-7.28v-17.48h-3.44v-6.16h3.44v-4a8.657,8.657,0,0,1,.56-3.16,6.14,6.14,0,0,1,2.2-2.92,7.68,7.68,0,0,1,4.56-1.28l5.4.04v6h-3.92a1.551,1.551,0,0,0-1,.32,1.684,1.684,0,0,0-.52,1.36v3.64h5.52Z" transform="translate(-960.13 -345.407)" fill="#ffbb24"/>
      </g>
    </g>
    <g id="Group_152" data-name="Group 152" transform="translate(937.898 4280)">
      <path id="Path_238-2" data-name="Path 238" d="M968.25,394.407h0a31.5,31.5,0,0,1-31.5-31.5h0a31.5,31.5,0,0,1,31.5-31.5h0a31.5,31.5,0,0,1,31.5,31.5h0A31.5,31.5,0,0,1,968.25,394.407Z" transform="translate(-936.75 -331.407)" fill="#597387" opacity="0.8"/>
      <path id="Path_239" data-name="Path 239" d="M811.423,571.213v-7.561a1.066,1.066,0,0,1,.08-.54,1.574,1.574,0,0,1,.56-.26l.36-.08v8.44h1.44v-8.6h.92v8.6h1.44v-8.64h18.92a6.514,6.514,0,0,1,3.34.9,7.085,7.085,0,0,1,2.48,2.42,6.422,6.422,0,0,1,.98,3.28q.039,1,.04,2.4-.04,2.961-.04,2.439h-10.72a.688.688,0,0,1-.56-.24,9.214,9.214,0,0,0-3.96-2.16,8.634,8.634,0,0,0-4.4.021,9.373,9.373,0,0,0-3.96,2.18.575.575,0,0,1-.4.2h-10.6l-.2-.04v-1.52q-.04.478-.04-1.841a17.767,17.767,0,0,1,.08-1.84,6.479,6.479,0,0,1,2.68-4.84l.16-.04v7.32h1.4Zm20.4,3.879h10.12v15.719a6.574,6.574,0,0,1-.92,3.4,6.757,6.757,0,0,1-2.48,2.46,6.687,6.687,0,0,1-3.4.9h-21.2a6.313,6.313,0,0,1-3.4-.881,7.059,7.059,0,0,1-2.5-2.479,6.463,6.463,0,0,1-.94-3.4v-15.68h10.12a8.8,8.8,0,0,0-1.12,8.08,9.092,9.092,0,0,0,7.18,5.86,9.028,9.028,0,0,0,3.82-.3,8.741,8.741,0,0,0,3.36-1.88,8.494,8.494,0,0,0,2.24-3.2,9.013,9.013,0,0,0,.68-4.159A9.69,9.69,0,0,0,831.823,575.092Zm-7.28,12a6.975,6.975,0,0,1-3.48-.9,6.615,6.615,0,0,1-2.52-2.479,6.89,6.89,0,0,1,0-6.879,6.915,6.915,0,0,1,2.52-2.521,6.716,6.716,0,0,1,3.46-.939,6.614,6.614,0,0,1,3.44.939,6.976,6.976,0,0,1,2.5,2.521,6.818,6.818,0,0,1-5.92,10.258Zm5.04-6.839a5.116,5.116,0,0,0-2.52-4.4,5.084,5.084,0,0,0-5.08,0,5.08,5.08,0,0,0-1.84,1.84,5.084,5.084,0,0,0,0,5.08,5.2,5.2,0,0,0,1.84,1.86,4.821,4.821,0,0,0,2.54.7,4.928,4.928,0,0,0,2.54-.681,5.065,5.065,0,0,0,1.84-1.84A4.966,4.966,0,0,0,829.583,580.253Zm9.2-11.8v-1.841a1.106,1.106,0,0,0-.3-.819,1.055,1.055,0,0,0-.78-.3q-1.84-.039-3.72,0a1,1,0,0,0-.8.319,1.23,1.23,0,0,0-.28.84v3.681a1.1,1.1,0,0,0,.3.819,1.056,1.056,0,0,0,.78.3h3.68a1.038,1.038,0,0,0,1.12-1.12Z" transform="translate(-793.043 -548.572)" fill="#ffbb24"/>
    </g>
    <path id="Path_145" data-name="Path 145" d="M968.75,1186.57h0a31.5,31.5,0,0,1-31.5-31.5h0a31.5,31.5,0,0,1,31.5-31.5h0a31.5,31.5,0,0,1,31.5,31.5h0A31.5,31.5,0,0,1,968.75,1186.57Z" transform="translate(110.94 3156.43)" fill="#597387" opacity="0.8"/>
    <g id="Group_195" data-name="Group 195" transform="translate(1061.761 4297.279)">
      <path id="Path_303" data-name="Path 303" d="M982.67,1147.97v.92a20.791,20.791,0,0,1-1.32,7.2,21.463,21.463,0,0,1-3.92,6.56,19.448,19.448,0,0,1-6.4,4.8,20.878,20.878,0,0,1-8.76,1.84,20.483,20.483,0,0,1-5.84-.84,19.86,19.86,0,0,1-5.2-2.36q.84.081,1.72.08a14.28,14.28,0,0,0,4.76-.8,14.917,14.917,0,0,0,4.16-2.24,7.183,7.183,0,0,1-4.16-1.46,6.927,6.927,0,0,1-2.52-3.54,7.142,7.142,0,0,0,1.32.12,7.414,7.414,0,0,0,1.88-.24,6.943,6.943,0,0,1-2.92-1.34,7.13,7.13,0,0,1-2.06-2.521,7.488,7.488,0,0,1-.78-3.18v-.12a6.737,6.737,0,0,0,3.28.92,7.235,7.235,0,0,1-2.34-2.58,7.029,7.029,0,0,1-.86-3.42,7.144,7.144,0,0,1,.96-3.6,20.512,20.512,0,0,0,14.8,7.519,8.314,8.314,0,0,1-.16-1.64,7,7,0,0,1,.96-3.6,7.248,7.248,0,0,1,2.62-2.62,6.923,6.923,0,0,1,3.58-.98,7.12,7.12,0,0,1,5.24,2.281,13.968,13.968,0,0,0,4.56-1.76,6.952,6.952,0,0,1-1.22,2.3,7.386,7.386,0,0,1-1.94,1.7,14.6,14.6,0,0,0,4.16-1.16A15.04,15.04,0,0,1,982.67,1147.97Z" transform="translate(-951.23 -1140.849)" fill="#ffbb24"/>
    </g>
  </g>
</svg>
